<?xml version="1.0" standalone="no"?>
<!DOCTYPE svg PUBLIC "-//W3C//DTD SVG 20010904//EN"
 "http://www.w3.org/TR/2001/REC-SVG-20010904/DTD/svg10.dtd">
<svg version="1.0" xmlns="http://www.w3.org/2000/svg"
 width="526.000000pt" height="426.000000pt" viewBox="0 0 526.000000 426.000000"
 preserveAspectRatio="xMidYMid meet">

<g transform="translate(0.000000,426.000000) scale(0.100000,-0.100000)"
fill="#000000" stroke="none">
<path d="M3423 3253 c8 -10 25 -43 37 -73 11 -30 32 -65 46 -77 27 -25 73 -30
92 -11 8 8 16 5 31 -13 16 -18 20 -20 21 -8 0 9 -7 22 -15 29 -22 18 -18 28 9
23 17 -4 29 3 45 22 45 58 15 81 -126 94 -55 5 -110 14 -121 20 -30 16 -37 13
-19 -6z"/>
<path d="M2560 3167 c0 -8 -28 -19 -71 -30 -85 -19 -186 -65 -240 -108 -24
-19 -46 -28 -56 -25 -21 6 -28 2 -67 -41 -23 -26 -27 -35 -17 -46 9 -11 4 -27
-24 -73 -46 -76 -74 -169 -82 -267 -4 -52 -11 -81 -20 -84 -14 -6 -17 -41 -7
-92 5 -22 12 -31 26 -31 10 0 21 -8 25 -17 24 -73 84 -172 138 -231 35 -38 63
-76 62 -86 -3 -25 91 -85 103 -67 5 10 27 7 89 -13 153 -49 278 -45 428 13 41
16 75 25 80 20 14 -14 105 50 98 68 -3 9 15 37 45 70 62 68 113 159 136 241
10 34 23 62 29 62 8 0 16 23 20 57 5 45 4 58 -8 65 -9 4 -18 30 -22 60 -11 81
-41 167 -80 232 -20 33 -34 68 -33 78 4 24 -72 102 -85 89 -7 -7 -23 0 -48 20
-44 35 -169 94 -219 104 -60 11 -70 16 -70 31 0 11 -15 14 -65 14 -46 0 -65
-4 -65 -13z m106 -254 c21 -60 70 -198 110 -308 l72 -200 20 70 c11 39 30 107
42 153 12 45 26 82 31 82 4 0 27 -60 49 -132 23 -73 54 -173 70 -223 15 -49
31 -100 35 -112 l6 -23 -465 0 c-256 0 -467 3 -469 8 -5 9 126 492 134 492 3
0 18 -42 33 -92 15 -51 37 -124 48 -162 l21 -69 103 299 c57 164 104 305 104
312 0 37 22 0 56 -95z"/>
<path d="M2608 2890 c-9 -25 -55 -157 -102 -295 -84 -241 -87 -251 -75 -292
l12 -43 183 0 183 0 10 38 c6 20 11 42 11 48 0 7 -41 126 -91 265 -50 140 -97
270 -104 289 l-12 34 -15 -44z"/>
<path d="M2931 2580 c-7 -25 -24 -86 -38 -137 -24 -85 -24 -94 -11 -135 l15
-43 76 -3 c45 -2 77 1 77 7 0 5 -23 83 -51 173 -28 90 -52 168 -53 173 -2 6
-9 -10 -15 -35z"/>
<path d="M2292 2578 c-6 -18 -27 -93 -47 -167 -20 -74 -38 -138 -41 -142 -3
-5 31 -9 74 -9 l79 0 13 44 c11 41 9 54 -25 173 -21 70 -39 129 -40 131 -2 2
-8 -12 -13 -30z"/>
<path d="M2846 2275 c-3 -8 -1 -15 4 -15 6 0 10 7 10 15 0 8 -2 15 -4 15 -2 0
-6 -7 -10 -15z"/>
<path d="M2390 2270 c0 -5 5 -10 11 -10 5 0 7 5 4 10 -3 6 -8 10 -11 10 -2 0
-4 -4 -4 -10z"/>
<path d="M3735 3041 c-10 -17 12 -21 25 -6 10 12 10 15 -3 15 -9 0 -18 -4 -22
-9z"/>
<path d="M3716 2988 c4 -7 18 -27 31 -44 30 -40 29 -46 -4 -43 -48 4 -62 0
-73 -21 -18 -33 13 -85 61 -104 22 -9 45 -16 53 -16 7 0 25 -9 40 -21 24 -19
26 -19 26 -3 0 13 8 9 30 -16 19 -21 28 -40 25 -51 -4 -11 7 -35 28 -62 35
-45 93 -185 81 -196 -8 -8 -91 84 -113 127 l-18 35 -5 -44 c-3 -24 -22 -84
-43 -132 -32 -72 -37 -92 -29 -115 12 -33 54 -41 90 -17 24 16 27 15 40 -2 7
-10 16 -26 19 -35 4 -10 13 -18 22 -18 14 0 14 3 -1 25 -21 32 -21 32 14 33
34 1 33 2 20 -32 -7 -20 -6 -26 5 -26 19 0 39 95 33 161 -3 30 -17 84 -31 120
-34 83 -29 121 16 135 17 5 39 21 50 36 28 37 16 83 -37 155 -24 32 -53 75
-64 96 l-20 38 -7 -33 c-4 -18 -21 -66 -38 -106 -26 -62 -32 -71 -41 -55 -5
10 -9 46 -8 81 2 55 0 65 -23 87 -19 20 -29 24 -43 16 -13 -7 -23 -4 -40 14
-12 12 -22 28 -22 34 0 6 -7 11 -16 11 -9 0 -12 -5 -8 -12z m264 -370 l0 -32
-21 21 c-22 22 -19 43 7 43 9 0 14 -11 14 -32z"/>
<path d="M4128 2276 c-78 -106 -103 -138 -139 -180 -24 -28 -27 -40 -28 -126
-2 -91 -2 -94 16 -78 10 9 48 30 85 46 42 20 69 38 73 51 5 16 15 21 40 21 24
0 39 7 54 26 26 34 26 66 0 184 -36 165 -25 159 -101 56z m-66 -307 c19 0 16
-4 -17 -20 -60 -28 -65 -26 -65 32 l0 51 29 -31 c16 -17 40 -31 53 -32z"/>
<path d="M3755 1957 c-79 -169 -40 -372 68 -354 30 5 34 3 30 -12 -2 -10 -17
-25 -33 -34 -35 -21 -45 -49 -30 -78 10 -17 8 -25 -9 -43 -12 -12 -21 -32 -21
-44 0 -22 1 -22 38 -6 20 9 42 18 48 20 7 3 9 -6 6 -26 -9 -65 53 -81 112 -29
19 16 67 82 105 146 l71 115 -68 -6 c-37 -4 -84 -9 -105 -12 -29 -5 -36 -3
-32 8 3 7 15 18 28 23 15 7 24 22 28 48 3 21 11 43 18 50 13 13 15 57 2 57 -5
0 -12 -11 -15 -25 -7 -28 -26 -25 -26 3 0 10 -27 35 -61 57 -66 44 -95 83
-114 153 l-12 47 -28 -58z m153 -325 c15 -10 7 -38 -14 -46 -10 -4 -14 3 -14
24 0 31 6 35 28 22z m-89 -213 c-48 -25 -59 -23 -26 6 16 15 34 22 43 18 13
-5 9 -10 -17 -24z"/>
<path d="M3463 1340 c-58 -35 -81 -113 -46 -153 17 -18 17 -19 -1 -32 -64 -47
-346 -115 -477 -115 -56 0 -59 -1 -59 -24 0 -35 42 -38 207 -10 142 23 260 57
333 94 22 11 42 20 45 20 3 0 5 -16 5 -35 0 -65 64 -96 120 -58 14 9 61 47
105 84 44 36 106 84 137 106 l57 40 -95 23 c-53 13 -98 29 -101 36 -3 8 -15
13 -26 12 -12 -1 -46 6 -76 15 -70 22 -89 21 -128 -3z"/>
<path d="M2939 1332 c-3 -17 7 -36 38 -69 24 -25 41 -49 38 -53 -5 -8 25 -24
32 -17 2 2 -8 16 -21 30 -41 45 -74 91 -78 112 -4 18 -5 18 -9 -3z"/>
<path d="M2393 1323 c15 -2 39 -2 55 0 15 2 2 4 -28 4 -30 0 -43 -2 -27 -4z"/>
<path d="M2788 1323 c12 -2 32 -2 45 0 12 2 2 4 -23 4 -25 0 -35 -2 -22 -4z"/>
<path d="M2898 1313 c7 -3 16 -2 19 1 4 3 -2 6 -13 5 -11 0 -14 -3 -6 -6z"/>
<path d="M2235 1265 c-21 -25 -41 -43 -45 -40 -4 3 -10 -4 -13 -14 -3 -14 -1
-18 9 -14 8 3 14 9 14 15 0 5 5 6 12 2 6 -4 8 -3 5 3 -4 6 13 29 38 52 24 22
38 41 30 41 -7 0 -30 -20 -50 -45z"/>
<path d="M2615 1260 c-3 -5 -1 -10 4 -10 6 0 11 5 11 10 0 6 -2 10 -4 10 -3 0
-8 -4 -11 -10z"/>
<path d="M2318 1243 c7 -3 16 -2 19 1 4 3 -2 6 -13 5 -11 0 -14 -3 -6 -6z"/>
<path d="M2408 1243 c7 -3 16 -2 19 1 4 3 -2 6 -13 5 -11 0 -14 -3 -6 -6z"/>
<path d="M2818 1243 c12 -2 32 -2 45 0 12 2 2 4 -23 4 -25 0 -35 -2 -22 -4z"/>
<path d="M2918 1233 c7 -3 16 -2 19 1 4 3 -2 6 -13 5 -11 0 -14 -3 -6 -6z"/>
<path d="M2725 1220 c-3 -6 1 -7 9 -4 18 7 21 14 7 14 -6 0 -13 -4 -16 -10z"/>
<path d="M840 1121 c-58 -15 -159 -42 -225 -60 -139 -37 -257 -49 -334 -32
-30 6 -56 9 -59 7 -9 -9 93 -67 148 -84 39 -12 88 -17 167 -16 62 0 110 -3
107 -7 -11 -18 -134 -104 -189 -132 -33 -17 -94 -41 -135 -53 l-74 -22 39 -5
c108 -16 146 -17 221 -4 44 8 127 34 185 58 98 41 110 43 207 45 l104 1 57
102 58 101 34 -23 c19 -12 72 -44 117 -71 79 -45 84 -47 97 -29 17 22 39 108
32 125 -3 8 -9 2 -16 -14 -12 -31 -32 -38 -24 -9 6 24 -48 86 -96 110 -98 50
-263 54 -421 12z"/>
<path d="M4067 1140 c-104 -19 -197 -85 -197 -140 0 -25 -18 -18 -30 14 -7 17
-9 15 -9 -17 -1 -21 6 -54 14 -73 l15 -35 124 64 125 64 62 -101 63 -101 95
-1 c90 0 103 -3 211 -46 140 -57 220 -72 320 -63 125 11 132 15 50 36 -90 23
-216 89 -283 150 l-52 47 90 -5 c107 -6 182 7 264 48 58 29 111 73 66 55 -11
-5 -61 -11 -111 -13 -107 -6 -178 6 -409 73 -171 49 -303 63 -408 44z"/>
<path d="M2105 971 c-164 -43 -304 -100 -364 -149 l-25 -19 70 -11 c63 -9 72
-9 97 10 133 94 192 118 350 144 116 19 139 37 61 48 -65 9 -66 8 -189 -23z"/>
<path d="M1092 902 c-78 -135 -102 -180 -102 -189 0 -26 361 -215 558 -291
733 -286 1470 -265 2256 65 156 65 446 212 446 226 0 13 -154 258 -160 254
-279 -144 -410 -201 -640 -277 -314 -104 -514 -140 -822 -147 -307 -8 -520 19
-786 98 -206 61 -495 190 -659 295 l-52 33 -39 -67z m3005 -106 c31 -62 39
-86 30 -95 -6 -6 -14 -11 -18 -11 -9 0 -89 150 -89 167 0 10 13 20 30 22 3 1
24 -37 47 -83z m-93 39 c3 -9 -3 -19 -17 -26 -12 -7 -23 -13 -25 -14 -1 -1 12
-32 28 -69 17 -37 28 -71 25 -76 -15 -24 -38 -5 -67 55 -25 49 -36 64 -48 59
-8 -4 -25 -7 -36 -7 -16 1 -26 -10 -38 -40 -9 -22 -15 -41 -13 -43 1 -1 26
-16 55 -34 57 -35 63 -45 30 -54 -15 -3 -36 3 -62 21 -37 24 -40 25 -52 8 -10
-13 -10 -23 -3 -37 6 -11 8 -26 5 -34 -13 -33 -35 -10 -71 72 -29 69 -34 88
-23 95 22 14 28 10 45 -28 l15 -38 22 53 c20 51 24 55 116 102 52 27 98 49
101 50 4 0 9 -7 13 -15z m-2730 -15 c35 -13 66 -46 66 -70 0 -30 -38 -26 -50
5 -11 28 -33 41 -50 30 -7 -4 4 -23 30 -51 46 -50 49 -65 19 -95 -42 -42 -132
0 -137 65 -3 32 -1 36 13 29 9 -5 22 -20 28 -33 17 -33 43 -48 58 -33 9 9 4
21 -24 53 -41 44 -45 64 -20 92 18 20 31 22 67 8z m190 -96 c13 -5 16 -25 16
-110 0 -57 -3 -104 -6 -104 -19 0 -44 24 -44 43 0 17 -10 28 -34 39 -30 15
-35 15 -49 1 -15 -15 -61 -10 -55 7 5 13 138 130 147 130 5 0 16 -3 25 -6z
m141 -62 c43 -17 70 -33 70 -42 0 -15 -18 -17 -46 -6 -13 6 -21 -6 -40 -60
-24 -67 -41 -86 -61 -66 -7 7 -3 31 16 78 26 68 24 83 -11 84 -7 0 -13 9 -13
20 0 25 0 25 85 -8z m2059 -66 c36 -40 66 -76 66 -79 0 -13 -36 -12 -53 1 -14
13 -24 13 -57 3 -33 -10 -40 -16 -40 -36 0 -14 -2 -25 -4 -25 -2 0 -12 -3 -22
-7 -16 -6 -17 2 -11 97 5 101 12 119 44 120 6 0 41 -33 77 -74z m-1930 15 c7
-11 -48 -174 -60 -178 -5 -1 -15 1 -22 6 -11 7 -9 22 12 82 15 41 29 80 31 87
5 14 31 16 39 3z m174 -65 c3 -16 -1 -18 -30 -12 l-35 6 -21 -74 c-19 -65 -25
-73 -42 -69 -25 7 -25 12 0 93 11 36 20 66 20 67 0 1 -13 4 -30 8 -33 7 -32 7
-24 28 8 22 157 -21 162 -47z m1562 49 c20 -24 2 -35 -44 -29 -38 6 -46 4 -56
-15 -17 -32 4 -89 36 -97 26 -7 54 10 54 32 0 8 10 14 25 14 31 0 32 -18 5
-53 -22 -28 -74 -43 -110 -32 -29 9 -60 62 -60 103 0 49 46 92 98 92 22 0 45
-6 52 -15z m-1504 -67 c-3 -13 -13 -56 -23 -95 -16 -70 -24 -81 -50 -65 -8 5
-6 29 10 95 19 79 23 87 45 87 20 0 23 -4 18 -22z m1184 -91 c9 -48 14 -89 12
-92 -3 -3 -13 -5 -22 -5 -14 0 -21 18 -34 83 -21 106 -21 109 6 105 19 -3 24
-14 38 -91z m-75 63 c0 -9 -11 -16 -29 -18 -31 -4 -30 8 -10 -122 6 -38 5 -40
-18 -40 -24 0 -26 4 -32 61 -10 85 -13 91 -47 84 -24 -6 -29 -3 -29 13 0 17
10 22 63 30 79 12 102 11 102 -8z m-805 -14 c28 -13 38 -49 20 -72 -10 -11
-10 -17 0 -28 18 -23 8 -59 -20 -72 -24 -11 -132 -5 -145 8 -3 3 -1 47 6 97
l12 91 51 -6 c28 -4 62 -11 76 -18z m630 4 c0 -5 -13 -25 -30 -43 l-29 -34 46
-54 46 -54 -29 -3 c-28 -4 -40 6 -80 63 -14 19 -14 19 -29 0 -9 -12 -12 -31
-9 -47 5 -25 3 -28 -19 -28 -22 0 -25 5 -31 53 -3 28 -6 71 -6 95 0 35 3 42
20 42 13 0 20 -7 20 -19 0 -50 11 -53 46 -12 19 22 44 42 57 44 12 2 23 5 25
6 1 0 2 -3 2 -9z m-520 -44 c0 -30 4 -35 30 -41 40 -9 50 0 50 41 0 28 4 34
20 34 20 0 21 -5 18 -97 -3 -93 -4 -98 -25 -101 -21 -3 -23 1 -23 42 0 46 0
46 -35 46 -33 0 -35 -2 -41 -40 -5 -30 -11 -40 -25 -40 -17 0 -19 8 -19 79 0
92 5 111 31 111 15 0 19 -7 19 -34z m300 -61 c22 -49 40 -93 40 -97 0 -18 -39
-6 -54 17 -12 19 -25 25 -51 25 -29 0 -37 -5 -45 -25 -10 -26 -50 -36 -50 -12
0 14 57 150 73 175 5 7 18 12 28 10 14 -2 31 -29 59 -93z"/>
<path d="M1412 657 c-21 -22 -21 -25 -6 -31 23 -9 37 6 32 34 l-3 22 -23 -25z"/>
<path d="M3590 583 c0 -33 6 -39 27 -25 8 5 6 14 -7 32 l-20 25 0 -32z"/>
<path d="M2180 451 c0 -12 6 -21 14 -21 8 0 20 -2 28 -5 7 -3 20 -1 28 5 19
12 5 26 -37 35 -29 6 -33 4 -33 -14z"/>
<path d="M2170 371 c0 -21 19 -31 56 -31 28 0 34 34 8 44 -33 13 -64 7 -64
-13z"/>
<path d="M2603 390 c-11 -28 -10 -30 13 -30 27 0 29 5 11 37 l-13 23 -11 -30z"/>
</g>
</svg>
